ffmpeg started on 2025-10-01 at 11:03:36
Report written to "D:\Convert\FFMetrics\reports\ssim_report-6.txt"
Log level: 32
Command line:
ffmpeg -hide_banner -nostdin -i "F:\\\xc0\xed\xe8\xec\xe5\\\xce\xed\xe3\xee\xe8\xed\xe3\xe8\\!_37_\xc7\xe8\xec\xe0_2025\\JamClub\\\xc4\xee\xea\xf2\xee\xf0 \xd1\xf2\xee\xf3\xed\\\xd2\xc2-4\\JamClub_Dr_Stone_Science_Future_09_1080p_HEVC.mkv" -i "F:\\\xc0\xed\xe8\xec\xe5\\\xce\xed\xe3\xee\xe8\xed\xe3\xe8\\!_37_\xc7\xe8\xec\xe0_2025\\JamClub\\\xc4\xee\xea\xf2\xee\xf0 \xd1\xf2\xee\xf3\xed\\\xd2\xc2-4\\JamClub_Dr_Stone_Science_Future_09_1080p.mp4" -lavfi "[0:v]settb=AVTB,setpts=PTS-STARTPTS,format=pix_fmts=yuv420p10le,fps=24000/1001,scale=1920:1080:flags=bicubic:out_range=limited:out_chroma_loc=left,colorspace=format=yuv420p10:range=tv:primaries=bt709:trc=bt709:space=bt709:fast=0[main];[1:v]settb=AVTB,setpts=PTS-STARTPTS,format=pix_fmts=yuv420p,fps=24000/1001,scale=1920:1080:flags=bicubic:out_range=limited:out_chroma_loc=left,colorspace=format=yuv420p:irange=tv:iprimaries=bt709:itrc=bt709:ispace=bt709:range=tv:primaries=bt709:trc=bt709:space=bt709:fast=0[ref];[main][ref]ssim=eof_action=endall:stats_file='D\\:/Convert/FFMetrics/logs/ssim_logfile-6.txt'" -f null -
Input #0, matroska,webm, from 'F:\Аниме\Онгоинги\!_37_Зима_2025\JamClub\Доктор Стоун\ТВ-4\JamClub_Dr_Stone_Science_Future_09_1080p_HEVC.mkv':
  Metadata:
    COMPATIBLE_BRANDS: isomiso2avc1mp41
    MAJOR_BRAND     : isom
    MINOR_VERSION   : 512
    ENCODER         : Lavf61.7.100
  Duration: 00:24:24.88, start: -0.001000, bitrate: 1677 kb/s
  Stream #0:0: Video: hevc (Main 10), yuv420p10le(tv, bt709, progressive), 1920x1080 [SAR 1:1 DAR 16:9], 23.98 fps, 23.98 tbr, 1k tbn (default)
      Metadata:
        HANDLER_NAME    : VideoHandler
        VENDOR_ID       : [0][0][0][0]
        ENCODER         : Lavc61.19.100 libx265
        BPS             : 1480430
        DURATION        : 00:24:22.252708333
        NUMBER_OF_FRAMES: 35059
        NUMBER_OF_BYTES : 270595377
        _STATISTICS_WRITING_APP: mkvpropedit v94.0 ('Initiate') 64-bit
        _STATISTICS_WRITING_DATE_UTC: 2025-09-30 18:01:24
        _STATISTICS_TAGS: BPS DURATION NUMBER_OF_FRAMES NUMBER_OF_BYTES
  Stream #0:1(eng): Audio: aac (LC), 48000 Hz, stereo, fltp (default)
      Metadata:
        HANDLER_NAME    : SoundHandler
        VENDOR_ID       : [0][0][0][0]
        ENCODER         : Lavc61.19.100 aac
        BPS             : 195319
        DURATION        : 00:24:24.835000000
        NUMBER_OF_FRAMES: 68665
        NUMBER_OF_BYTES : 35763775
        _STATISTICS_WRITING_APP: mkvpropedit v94.0 ('Initiate') 64-bit
        _STATISTICS_WRITING_DATE_UTC: 2025-09-30 18:01:24
        _STATISTICS_TAGS: BPS DURATION NUMBER_OF_FRAMES NUMBER_OF_BYTES
Input #1, mov,mp4,m4a,3gp,3g2,mj2, from 'F:\Аниме\Онгоинги\!_37_Зима_2025\JamClub\Доктор Стоун\ТВ-4\JamClub_Dr_Stone_Science_Future_09_1080p.mp4':
  Metadata:
    major_brand     : isom
    minor_version   : 512
    compatible_brands: isomiso2avc1mp41
    encoder         : Lavf60.16.100
  Duration: 00:24:24.86, start: 0.000000, bitrate: 4417 kb/s
  Stream #1:0[0x1](und): Video: h264 (High) (avc1 / 0x31637661), yuv420p(progressive), 1920x1080 [SAR 1:1 DAR 16:9], 4226 kb/s, 23.98 fps, 23.98 tbr, 90k tbn (default)
      Metadata:
        handler_name    : VideoHandler
        vendor_id       : [0][0][0][0]
  Stream #1:1[0x2](eng): Audio: aac (LC) (mp4a / 0x6134706D), 48000 Hz, stereo, fltp, 191 kb/s (default)
      Metadata:
        handler_name    : SoundHandler
        vendor_id       : [0][0][0][0]
Stream mapping:
  Stream #0:0 (hevc) -> settb:default
  Stream #1:0 (h264) -> settb:default
  ssim:default -> Stream #0:0 (wrapped_avframe)
  Stream #0:1 -> #0:1 (aac (native) -> pcm_s16le (native))
Output #0, null, to 'pipe:':
  Metadata:
    COMPATIBLE_BRANDS: isomiso2avc1mp41
    MAJOR_BRAND     : isom
    MINOR_VERSION   : 512
    encoder         : Lavf61.7.100
  Stream #0:0: Video: wrapped_avframe, yuv420p10le(tv, bt709, progressive), 1920x1080 [SAR 1:1 DAR 16:9], q=2-31, 200 kb/s, 23.98 fps, 23.98 tbn
      Metadata:
        encoder         : Lavc61.19.100 wrapped_avframe
  Stream #0:1(eng): Audio: pcm_s16le, 48000 Hz, stereo, s16, 1536 kb/s (default)
      Metadata:
        HANDLER_NAME    : SoundHandler
        VENDOR_ID       : [0][0][0][0]
        _STATISTICS_TAGS: BPS DURATION NUMBER_OF_FRAMES NUMBER_OF_BYTES
        BPS             : 195319
        DURATION        : 00:24:24.835000000
        NUMBER_OF_FRAMES: 68665
        NUMBER_OF_BYTES : 35763775
        _STATISTICS_WRITING_APP: mkvpropedit v94.0 ('Initiate') 64-bit
        _STATISTICS_WRITING_DATE_UTC: 2025-09-30 18:01:24
        encoder         : Lavc61.19.100 pcm_s16le
frame=  101 fps=0.0 q=-0.0 size=N/A time=00:00:04.21 bitrate=N/A speed=8.09x    frame=  243 fps=235 q=-0.0 size=N/A time=00:00:10.13 bitrate=N/A speed=9.82x    frame=  400 fps=259 q=-0.0 size=N/A time=00:00:16.68 bitrate=N/A speed=10.8x    frame=  585 fps=282 q=-0.0 size=N/A time=00:00:24.39 bitrate=N/A speed=11.8x    frame=  763 fps=295 q=-0.0 size=N/A time=00:00:31.82 bitrate=N/A speed=12.3x    frame=  955 fps=308 q=-0.0 size=N/A time=00:00:39.83 bitrate=N/A speed=12.9x    frame= 1133 fps=314 q=-0.0 size=N/A time=00:00:47.25 bitrate=N/A speed=13.1x    frame= 1297 fps=313 q=-0.0 size=N/A time=00:00:54.09 bitrate=N/A speed=13.1x    frame= 1497 fps=322 q=-0.0 size=N/A time=00:01:02.43 bitrate=N/A speed=13.4x    frame= 1684 fps=326 q=-0.0 size=N/A time=00:01:10.23 bitrate=N/A speed=13.6x    frame= 1871 fps=330 q=-0.0 size=N/A time=00:01:18.03 bitrate=N/A speed=13.8x    frame= 2071 fps=334 q=-0.0 size=N/A time=00:01:26.37 bitrate=N/A speed=13.9x    frame= 2256 fps=336 q=-0.0 size=N/A time=00:01:34.09 bitrate=N/A speed=  14x    frame= 2460 fps=341 q=-0.0 size=N/A time=00:01:42.60 bitrate=N/A speed=14.2x    frame= 2657 fps=343 q=-0.0 size=N/A time=00:01:50.81 bitrate=N/A speed=14.3x    frame= 2826 fps=342 q=-0.0 size=N/A time=00:01:57.86 bitrate=N/A speed=14.3x    frame= 2993 fps=341 q=-0.0 size=N/A time=00:02:04.83 bitrate=N/A speed=14.2x    frame= 3125 fps=337 q=-0.0 size=N/A time=00:02:10.33 bitrate=N/A speed=  14x    frame= 3254 fps=332 q=-0.0 size=N/A time=00:02:15.71 bitrate=N/A speed=13.8x    frame= 3389 fps=328 q=-0.0 size=N/A time=00:02:21.34 bitrate=N/A speed=13.7x    frame= 3516 fps=325 q=-0.0 size=N/A time=00:02:26.64 bitrate=N/A speed=13.5x    frame= 3649 fps=322 q=-0.0 size=N/A time=00:02:32.19 bitrate=N/A speed=13.4x    frame= 3793 fps=320 q=-0.0 size=N/A time=00:02:38.19 bitrate=N/A speed=13.3x    frame= 3941 fps=318 q=-0.0 size=N/A time=00:02:44.37 bitrate=N/A speed=13.3x    frame= 4065 fps=315 q=-0.0 size=N/A time=00:02:49.54 bitrate=N/A speed=13.2x    frame= 4196 fps=313 q=-0.0 size=N/A time=00:02:55.00 bitrate=N/A speed=  13x    frame= 4328 fps=310 q=-0.0 size=N/A time=00:03:00.51 bitrate=N/A speed=12.9x    frame= 4458 fps=308 q=-0.0 size=N/A time=00:03:05.93 bitrate=N/A speed=12.9x    frame= 4561 fps=305 q=-0.0 size=N/A time=00:03:10.23 bitrate=N/A speed=12.7x    frame= 4705 fps=304 q=-0.0 size=N/A time=00:03:16.23 bitrate=N/A speed=12.7x    frame= 4871 fps=304 q=-0.0 size=N/A time=00:03:23.16 bitrate=N/A speed=12.7x    frame= 4996 fps=302 q=-0.0 size=N/A time=00:03:28.37 bitrate=N/A speed=12.6x    frame= 5161 fps=303 q=-0.0 size=N/A time=00:03:35.25 bitrate=N/A speed=12.6x    frame= 5344 fps=305 q=-0.0 size=N/A time=00:03:42.88 bitrate=N/A speed=12.7x    frame= 5530 fps=306 q=-0.0 size=N/A time=00:03:50.64 bitrate=N/A speed=12.8x    frame= 5719 fps=308 q=-0.0 size=N/A time=00:03:58.52 bitrate=N/A speed=12.8x    frame= 5904 fps=309 q=-0.0 size=N/A time=00:04:06.24 bitrate=N/A speed=12.9x    frame= 6072 fps=310 q=-0.0 size=N/A time=00:04:13.25 bitrate=N/A speed=12.9x    frame= 6251 fps=311 q=-0.0 size=N/A time=00:04:20.71 bitrate=N/A speed=  13x    frame= 6439 fps=312 q=-0.0 size=N/A time=00:04:28.55 bitrate=N/A speed=  13x    frame= 6629 fps=313 q=-0.0 size=N/A time=00:04:36.48 bitrate=N/A speed=13.1x    frame= 6804 fps=314 q=-0.0 size=N/A time=00:04:43.78 bitrate=N/A speed=13.1x    frame= 6976 fps=314 q=-0.0 size=N/A time=00:04:50.95 bitrate=N/A speed=13.1x    frame= 7141 fps=314 q=-0.0 size=N/A time=00:04:57.83 bitrate=N/A speed=13.1x    frame= 7305 fps=315 q=-0.0 size=N/A time=00:05:04.67 bitrate=N/A speed=13.1x    frame= 7486 fps=315 q=-0.0 size=N/A time=00:05:12.22 bitrate=N/A speed=13.2x    frame= 7684 fps=317 q=-0.0 size=N/A time=00:05:20.48 bitrate=N/A speed=13.2x    frame= 7871 fps=318 q=-0.0 size=N/A time=00:05:28.28 bitrate=N/A speed=13.3x    frame= 8055 fps=319 q=-0.0 size=N/A time=00:05:35.96 bitrate=N/A speed=13.3x    frame= 8240 fps=319 q=-0.0 size=N/A time=00:05:43.67 bitrate=N/A speed=13.3x    frame= 8441 fps=321 q=-0.0 size=N/A time=00:05:52.06 bitrate=N/A speed=13.4x    frame= 8614 fps=321 q=-0.0 size=N/A time=00:05:59.27 bitrate=N/A speed=13.4x    frame= 8794 fps=322 q=-0.0 size=N/A time=00:06:06.78 bitrate=N/A speed=13.4x    frame= 8978 fps=322 q=-0.0 size=N/A time=00:06:14.45 bitrate=N/A speed=13.4x    frame= 9163 fps=323 q=-0.0 size=N/A time=00:06:22.17 bitrate=N/A speed=13.5x    frame= 9358 fps=324 q=-0.0 size=N/A time=00:06:30.30 bitrate=N/A speed=13.5x    frame= 9548 fps=325 q=-0.0 size=N/A time=00:06:38.23 bitrate=N/A speed=13.5x    frame= 9748 fps=326 q=-0.0 size=N/A time=00:06:46.57 bitrate=N/A speed=13.6x    frame= 9927 fps=326 q=-0.0 size=N/A time=00:06:54.03 bitrate=N/A speed=13.6x    frame=10109 fps=327 q=-0.0 size=N/A time=00:07:01.62 bitrate=N/A speed=13.6x    frame=10305 fps=327 q=-0.0 size=N/A time=00:07:09.80 bitrate=N/A speed=13.7x    frame=10487 fps=328 q=-0.0 size=N/A time=00:07:17.39 bitrate=N/A speed=13.7x    frame=10666 fps=328 q=-0.0 size=N/A time=00:07:24.86 bitrate=N/A speed=13.7x    frame=10859 fps=329 q=-0.0 size=N/A time=00:07:32.91 bitrate=N/A speed=13.7x    frame=11056 fps=330 q=-0.0 size=N/A time=00:07:41.12 bitrate=N/A speed=13.7x    frame=11250 fps=330 q=-0.0 size=N/A time=00:07:49.21 bitrate=N/A speed=13.8x    frame=11432 fps=331 q=-0.0 size=N/A time=00:07:56.80 bitrate=N/A speed=13.8x    frame=11614 fps=331 q=-0.0 size=N/A time=00:08:04.40 bitrate=N/A speed=13.8x    frame=11788 fps=331 q=-0.0 size=N/A time=00:08:11.65 bitrate=N/A speed=13.8x    frame=11970 fps=331 q=-0.0 size=N/A time=00:08:19.24 bitrate=N/A speed=13.8x    frame=12143 fps=332 q=-0.0 size=N/A time=00:08:26.46 bitrate=N/A speed=13.8x    frame=12322 fps=332 q=-0.0 size=N/A time=00:08:33.93 bitrate=N/A speed=13.8x    frame=12513 fps=332 q=-0.0 size=N/A time=00:08:41.89 bitrate=N/A speed=13.9x    frame=12695 fps=333 q=-0.0 size=N/A time=00:08:49.48 bitrate=N/A speed=13.9x    frame=12875 fps=333 q=-0.0 size=N/A time=00:08:56.99 bitrate=N/A speed=13.9x    frame=13060 fps=333 q=-0.0 size=N/A time=00:09:04.71 bitrate=N/A speed=13.9x    frame=13248 fps=334 q=-0.0 size=N/A time=00:09:12.55 bitrate=N/A speed=13.9x    frame=13422 fps=334 q=-0.0 size=N/A time=00:09:19.80 bitrate=N/A speed=13.9x    frame=13589 fps=333 q=-0.0 size=N/A time=00:09:26.77 bitrate=N/A speed=13.9x    frame=13762 fps=333 q=-0.0 size=N/A time=00:09:33.99 bitrate=N/A speed=13.9x    frame=13937 fps=334 q=-0.0 size=N/A time=00:09:41.28 bitrate=N/A speed=13.9x    frame=14116 fps=334 q=-0.0 size=N/A time=00:09:48.75 bitrate=N/A speed=13.9x    frame=14284 fps=334 q=-0.0 size=N/A time=00:09:55.76 bitrate=N/A speed=13.9x    frame=14435 fps=333 q=-0.0 size=N/A time=00:10:02.05 bitrate=N/A speed=13.9x    frame=14622 fps=333 q=-0.0 size=N/A time=00:10:09.85 bitrate=N/A speed=13.9x    frame=14814 fps=334 q=-0.0 size=N/A time=00:10:17.86 bitrate=N/A speed=13.9x    frame=14963 fps=333 q=-0.0 size=N/A time=00:10:24.08 bitrate=N/A speed=13.9x    frame=15132 fps=333 q=-0.0 size=N/A time=00:10:31.13 bitrate=N/A speed=13.9x    frame=15311 fps=333 q=-0.0 size=N/A time=00:10:38.59 bitrate=N/A speed=13.9x    frame=15510 fps=334 q=-0.0 size=N/A time=00:10:46.89 bitrate=N/A speed=13.9x    frame=15689 fps=334 q=-0.0 size=N/A time=00:10:54.36 bitrate=N/A speed=13.9x    frame=15877 fps=334 q=-0.0 size=N/A time=00:11:02.20 bitrate=N/A speed=  14x    frame=16059 fps=335 q=-0.0 size=N/A time=00:11:09.79 bitrate=N/A speed=  14x    frame=16227 fps=335 q=-0.0 size=N/A time=00:11:16.80 bitrate=N/A speed=  14x    frame=16410 fps=335 q=-0.0 size=N/A time=00:11:24.43 bitrate=N/A speed=  14x    frame=16601 fps=335 q=-0.0 size=N/A time=00:11:32.40 bitrate=N/A speed=  14x    frame=16783 fps=335 q=-0.0 size=N/A time=00:11:39.99 bitrate=N/A speed=  14x    frame=16962 fps=335 q=-0.0 size=N/A time=00:11:47.45 bitrate=N/A speed=  14x    frame=17148 fps=336 q=-0.0 size=N/A time=00:11:55.21 bitrate=N/A speed=  14x    frame=17341 fps=336 q=-0.0 size=N/A time=00:12:03.26 bitrate=N/A speed=  14x    frame=17532 fps=336 q=-0.0 size=N/A time=00:12:11.23 bitrate=N/A speed=  14x    frame=17714 fps=337 q=-0.0 size=N/A time=00:12:18.82 bitrate=N/A speed=  14x    frame=17905 fps=337 q=-0.0 size=N/A time=00:12:26.78 bitrate=N/A speed=  14x    frame=18082 fps=337 q=-0.0 size=N/A time=00:12:34.17 bitrate=N/A speed=14.1x    frame=18268 fps=337 q=-0.0 size=N/A time=00:12:41.92 bitrate=N/A speed=14.1x    frame=18448 fps=337 q=-0.0 size=N/A time=00:12:49.43 bitrate=N/A speed=14.1x    frame=18637 fps=338 q=-0.0 size=N/A time=00:12:57.31 bitrate=N/A speed=14.1x    frame=18820 fps=338 q=-0.0 size=N/A time=00:13:04.95 bitrate=N/A speed=14.1x    frame=19011 fps=338 q=-0.0 size=N/A time=00:13:12.91 bitrate=N/A speed=14.1x    frame=19184 fps=338 q=-0.0 size=N/A time=00:13:20.13 bitrate=N/A speed=14.1x    frame=19336 fps=338 q=-0.0 size=N/A time=00:13:26.47 bitrate=N/A speed=14.1x    frame=19516 fps=338 q=-0.0 size=N/A time=00:13:33.97 bitrate=N/A speed=14.1x    frame=19702 fps=338 q=-0.0 size=N/A time=00:13:41.73 bitrate=N/A speed=14.1x    frame=19877 fps=338 q=-0.0 size=N/A time=00:13:49.03 bitrate=N/A speed=14.1x    frame=20074 fps=338 q=-0.0 size=N/A time=00:13:57.25 bitrate=N/A speed=14.1x    frame=20262 fps=339 q=-0.0 size=N/A time=00:14:05.09 bitrate=N/A speed=14.1x    frame=20445 fps=339 q=-0.0 size=N/A time=00:14:12.72 bitrate=N/A speed=14.1x    frame=20622 fps=339 q=-0.0 size=N/A time=00:14:20.10 bitrate=N/A speed=14.1x    frame=20795 fps=339 q=-0.0 size=N/A time=00:14:27.32 bitrate=N/A speed=14.1x    frame=20986 fps=339 q=-0.0 size=N/A time=00:14:35.29 bitrate=N/A speed=14.1x    frame=21176 fps=339 q=-0.0 size=N/A time=00:14:43.21 bitrate=N/A speed=14.1x    frame=21366 fps=339 q=-0.0 size=N/A time=00:14:51.14 bitrate=N/A speed=14.2x    frame=21559 fps=340 q=-0.0 size=N/A time=00:14:59.18 bitrate=N/A speed=14.2x    frame=21733 fps=340 q=-0.0 size=N/A time=00:15:06.44 bitrate=N/A speed=14.2x    frame=21898 fps=340 q=-0.0 size=N/A time=00:15:13.32 bitrate=N/A speed=14.2x    frame=22077 fps=340 q=-0.0 size=N/A time=00:15:20.79 bitrate=N/A speed=14.2x    frame=22275 fps=340 q=-0.0 size=N/A time=00:15:29.05 bitrate=N/A speed=14.2x    frame=22461 fps=340 q=-0.0 size=N/A time=00:15:36.81 bitrate=N/A speed=14.2x    frame=22627 fps=340 q=-0.0 size=N/A time=00:15:43.73 bitrate=N/A speed=14.2x    frame=22810 fps=340 q=-0.0 size=N/A time=00:15:51.36 bitrate=N/A speed=14.2x    frame=23003 fps=340 q=-0.0 size=N/A time=00:15:59.41 bitrate=N/A speed=14.2x    frame=23182 fps=340 q=-0.0 size=N/A time=00:16:06.88 bitrate=N/A speed=14.2x    frame=23351 fps=340 q=-0.0 size=N/A time=00:16:13.93 bitrate=N/A speed=14.2x    frame=23532 fps=340 q=-0.0 size=N/A time=00:16:21.48 bitrate=N/A speed=14.2x    frame=23716 fps=340 q=-0.0 size=N/A time=00:16:29.15 bitrate=N/A speed=14.2x    frame=23909 fps=341 q=-0.0 size=N/A time=00:16:37.20 bitrate=N/A speed=14.2x    frame=24091 fps=341 q=-0.0 size=N/A time=00:16:44.79 bitrate=N/A speed=14.2x    frame=24287 fps=341 q=-0.0 size=N/A time=00:16:52.97 bitrate=N/A speed=14.2x    frame=24477 fps=341 q=-0.0 size=N/A time=00:17:00.89 bitrate=N/A speed=14.2x    frame=24668 fps=341 q=-0.0 size=N/A time=00:17:08.86 bitrate=N/A speed=14.2x    frame=24851 fps=342 q=-0.0 size=N/A time=00:17:16.49 bitrate=N/A speed=14.2x    frame=25039 fps=342 q=-0.0 size=N/A time=00:17:24.33 bitrate=N/A speed=14.3x    frame=25229 fps=342 q=-0.0 size=N/A time=00:17:32.25 bitrate=N/A speed=14.3x    frame=25420 fps=342 q=-0.0 size=N/A time=00:17:40.22 bitrate=N/A speed=14.3x    frame=25610 fps=342 q=-0.0 size=N/A time=00:17:48.15 bitrate=N/A speed=14.3x    frame=25808 fps=343 q=-0.0 size=N/A time=00:17:56.40 bitrate=N/A speed=14.3x    frame=25990 fps=343 q=-0.0 size=N/A time=00:18:03.99 bitrate=N/A speed=14.3x    frame=26174 fps=343 q=-0.0 size=N/A time=00:18:11.67 bitrate=N/A speed=14.3x    frame=26354 fps=343 q=-0.0 size=N/A time=00:18:19.18 bitrate=N/A speed=14.3x    frame=26533 fps=343 q=-0.0 size=N/A time=00:18:26.64 bitrate=N/A speed=14.3x    frame=26713 fps=343 q=-0.0 size=N/A time=00:18:34.15 bitrate=N/A speed=14.3x    frame=26898 fps=343 q=-0.0 size=N/A time=00:18:41.87 bitrate=N/A speed=14.3x    frame=27083 fps=343 q=-0.0 size=N/A time=00:18:49.58 bitrate=N/A speed=14.3x    frame=27272 fps=343 q=-0.0 size=N/A time=00:18:57.46 bitrate=N/A speed=14.3x    frame=27457 fps=343 q=-0.0 size=N/A time=00:19:05.18 bitrate=N/A speed=14.3x    frame=27647 fps=344 q=-0.0 size=N/A time=00:19:13.11 bitrate=N/A speed=14.3x    frame=27847 fps=344 q=-0.0 size=N/A time=00:19:21.45 bitrate=N/A speed=14.3x    frame=28037 fps=344 q=-0.0 size=N/A time=00:19:29.37 bitrate=N/A speed=14.3x    frame=28222 fps=344 q=-0.0 size=N/A time=00:19:37.09 bitrate=N/A speed=14.3x    frame=28410 fps=344 q=-0.0 size=N/A time=00:19:44.93 bitrate=N/A speed=14.4x    frame=28598 fps=344 q=-0.0 size=N/A time=00:19:52.77 bitrate=N/A speed=14.4x    frame=28783 fps=344 q=-0.0 size=N/A time=00:20:00.49 bitrate=N/A speed=14.4x    frame=28958 fps=344 q=-0.0 size=N/A time=00:20:07.78 bitrate=N/A speed=14.4x    frame=29131 fps=344 q=-0.0 size=N/A time=00:20:15.00 bitrate=N/A speed=14.4x    frame=29305 fps=344 q=-0.0 size=N/A time=00:20:22.26 bitrate=N/A speed=14.4x    frame=29490 fps=344 q=-0.0 size=N/A time=00:20:29.97 bitrate=N/A speed=14.4x    frame=29683 fps=345 q=-0.0 size=N/A time=00:20:38.02 bitrate=N/A speed=14.4x    frame=29866 fps=345 q=-0.0 size=N/A time=00:20:45.66 bitrate=N/A speed=14.4x    frame=30055 fps=345 q=-0.0 size=N/A time=00:20:53.54 bitrate=N/A speed=14.4x    frame=30225 fps=345 q=-0.0 size=N/A time=00:21:00.63 bitrate=N/A speed=14.4x    frame=30412 fps=345 q=-0.0 size=N/A time=00:21:08.43 bitrate=N/A speed=14.4x    frame=30595 fps=345 q=-0.0 size=N/A time=00:21:16.06 bitrate=N/A speed=14.4x    frame=30788 fps=345 q=-0.0 size=N/A time=00:21:24.11 bitrate=N/A speed=14.4x    frame=30961 fps=345 q=-0.0 size=N/A time=00:21:31.33 bitrate=N/A speed=14.4x    frame=31148 fps=345 q=-0.0 size=N/A time=00:21:39.13 bitrate=N/A speed=14.4x    frame=31293 fps=345 q=-0.0 size=N/A time=00:21:45.17 bitrate=N/A speed=14.4x    frame=31472 fps=345 q=-0.0 size=N/A time=00:21:52.64 bitrate=N/A speed=14.4x    frame=31642 fps=344 q=-0.0 size=N/A time=00:21:59.73 bitrate=N/A speed=14.4x    frame=31832 fps=345 q=-0.0 size=N/A time=00:22:07.65 bitrate=N/A speed=14.4x    frame=32016 fps=345 q=-0.0 size=N/A time=00:22:15.33 bitrate=N/A speed=14.4x    frame=32214 fps=345 q=-0.0 size=N/A time=00:22:23.59 bitrate=N/A speed=14.4x    frame=32389 fps=345 q=-0.0 size=N/A time=00:22:30.89 bitrate=N/A speed=14.4x    frame=32567 fps=345 q=-0.0 size=N/A time=00:22:38.31 bitrate=N/A speed=14.4x    frame=32761 fps=345 q=-0.0 size=N/A time=00:22:46.40 bitrate=N/A speed=14.4x    frame=32933 fps=345 q=-0.0 size=N/A time=00:22:53.58 bitrate=N/A speed=14.4x    frame=33120 fps=345 q=-0.0 size=N/A time=00:23:01.38 bitrate=N/A speed=14.4x    frame=33300 fps=345 q=-0.0 size=N/A time=00:23:08.88 bitrate=N/A speed=14.4x    frame=33467 fps=345 q=-0.0 size=N/A time=00:23:15.85 bitrate=N/A speed=14.4x    frame=33636 fps=345 q=-0.0 size=N/A time=00:23:22.90 bitrate=N/A speed=14.4x    frame=33805 fps=345 q=-0.0 size=N/A time=00:23:29.95 bitrate=N/A speed=14.4x    frame=33985 fps=345 q=-0.0 size=N/A time=00:23:37.45 bitrate=N/A speed=14.4x    frame=34164 fps=345 q=-0.0 size=N/A time=00:23:44.92 bitrate=N/A speed=14.4x    frame=34352 fps=345 q=-0.0 size=N/A time=00:23:52.76 bitrate=N/A speed=14.4x    frame=34478 fps=344 q=-0.0 size=N/A time=00:23:58.01 bitrate=N/A speed=14.4x    frame=34619 fps=344 q=-0.0 size=N/A time=00:24:03.90 bitrate=N/A speed=14.3x    frame=34797 fps=344 q=-0.0 size=N/A time=00:24:11.32 bitrate=N/A speed=14.3x    frame=34966 fps=344 q=-0.0 size=N/A time=00:24:18.37 bitrate=N/A speed=14.3x    [Parsed_ssim_12 @ 000002907d2946c0] SSIM Y:0.994386 (22.507340) U:0.993006 (21.552592) V:0.993219 (21.687190) All:0.993962 (22.190744)
[out#0/null @ 000002907cd46f40] video:15064KiB audio:274660KiB subtitle:0KiB other streams:0KiB global headers:0KiB muxing overhead: unknown
frame=35059 fps=344 q=-0.0 Lsize=N/A time=00:24:22.25 bitrate=N/A speed=14.3x    
